<svg width="351" height="338" viewBox="0 0 351 338" fill="none" xmlns="http://www.w3.org/2000/svg">
<path d="M343.242 176.786L188.403 332.085C186.56 333.928 184.563 335.231 182.412 335.993C180.262 336.767 177.958 337.154 175.5 337.154C173.042 337.154 170.738 336.767 168.588 335.993C166.437 335.231 164.44 333.928 162.597 332.085L7.29719 176.786C2.99611 172.485 0.845574 167.108 0.845573 160.657C0.845573 154.205 3.14972 148.675 7.75802 144.067C12.3663 139.458 17.7427 137.154 23.887 137.154C30.0314 137.154 35.4078 139.458 40.0161 144.067L175.5 279.551L310.984 144.067C315.285 139.766 320.581 137.615 326.873 137.615C333.177 137.615 338.634 139.919 343.242 144.528C347.85 149.136 350.154 154.512 350.154 160.657C350.154 166.801 347.85 172.177 343.242 176.786Z" fill="#B82F2F"/>
<path d="M343.242 39.7856L188.403 195.085C186.56 196.928 184.563 198.231 182.412 198.993C180.262 199.767 177.958 200.154 175.5 200.154C173.042 200.154 170.738 199.767 168.588 198.993C166.437 198.231 164.44 196.928 162.597 195.085L7.29718 39.7856C2.9961 35.4846 0.845568 30.1082 0.845567 23.6566C0.845567 17.205 3.14971 11.675 7.75801 7.06674C12.3663 2.45845 17.7426 0.154296 23.887 0.154296C30.0314 0.154296 35.4078 2.45845 40.0161 7.06674L175.5 142.551L310.984 7.06673C315.285 2.76565 320.581 0.615129 326.873 0.615129C333.177 0.615128 338.634 2.91925 343.242 7.52754C347.85 12.1358 350.154 17.5122 350.154 23.6566C350.154 29.801 347.85 35.1773 343.242 39.7856Z" fill="#B82F2F"/>
</svg>
