<svg width="201" height="350" viewBox="0 0 201 350" fill="none" xmlns="http://www.w3.org/2000/svg">
<path d="M40.2862 7.25694L195.586 162.096C197.429 163.939 198.732 165.936 199.494 168.086C200.268 170.237 200.655 172.541 200.655 174.999C200.655 177.457 200.268 179.761 199.494 181.911C198.732 184.062 197.429 186.059 195.586 187.902L40.2861 343.202C35.9851 347.503 30.6087 349.653 24.1571 349.653C17.7055 349.653 12.1755 347.349 7.56723 342.741C2.95894 338.133 0.654787 332.756 0.654787 326.612C0.654788 320.467 2.95894 315.091 7.56723 310.483L143.051 174.999L7.56726 39.515C3.26618 35.2139 1.11566 29.9175 1.11566 23.6256C1.11566 17.3214 3.41978 11.8652 8.02808 7.25694C12.6364 2.64865 18.0127 0.344466 24.1571 0.344467C30.3015 0.344468 35.6779 2.64865 40.2862 7.25694Z" fill="black"/>
</svg>
