<?xml version="1.0" encoding="utf-8"?><svg version="1.1" id="Layer_1" xmlns="http://www.w3.org/2000/svg" xmlns:xlink="http://www.w3.org/1999/xlink" x="0px" y="0px" viewBox="0 0 122.88 96.91" style="enable-background:new 0 0 122.88 96.91" xml:space="preserve"><g><path d="M105.84,42.5c0.23-1.17,1.36-1.93,2.52-1.7c1.17,0.23,1.93,1.36,1.7,2.52c-0.39,1.98-0.84,3.87-1.35,5.68 c-0.51,1.82-1.08,3.53-1.7,5.14c-0.69,1.81-1.46,3.51-2.29,5.13c-0.84,1.62-1.73,3.12-2.69,4.52c-0.67,0.98-2.01,1.23-2.98,0.56 c-0.98-0.67-1.23-2.01-0.56-2.98c0.86-1.27,1.67-2.62,2.42-4.07c0.75-1.45,1.45-3.01,2.09-4.69c0.58-1.52,1.11-3.11,1.58-4.77 C105.05,46.17,105.47,44.39,105.84,42.5L105.84,42.5z M12.42,9.88c3.26-3.4,8.07-5.88,14.36-7.49c0.06-0.02,0.12-0.03,0.19-0.04 c6.08-1.53,13.57-2.28,22.4-2.28c1.78,0,3.74-0.02,5.82-0.04c6.44-0.06,14.04-0.13,21.62,0.3c3.79,0.22,7.57,0.56,11.22,1.08 c3.68,0.53,7.25,1.25,10.55,2.23c3.4,1,6.53,2.28,9.24,3.89c2.8,1.66,5.15,3.69,6.93,6.15c1.22,1.69,2.31,3.55,3.27,5.59 c0.96,2.02,1.8,4.24,2.51,6.64l0.01,0.05l0,0c2.69,10.08,3,19.47,1.24,27.92c-1.84,8.88-5.94,16.69-11.92,23.14 c-4.08,4.41-8.98,8.22-14.73,11.28c-5.46,2.9-11.7,5.14-18.77,6.58c-9.34,1.9-17.79,2.41-25.43,1.72 c-7.69-0.7-14.57-2.61-20.71-5.56C20.2,86.26,12.17,77.54,6.93,67.3C1.46,56.65-1.01,44.32,0.38,33.05 c0.57-4.57,1.85-8.92,3.93-12.91C6.28,16.36,8.96,12.9,12.42,9.88L12.42,9.88z M27.83,6.57c-5.54,1.42-9.69,3.52-12.37,6.34l0,0 c-0.05,0.05-0.1,0.1-0.15,0.14c-3.06,2.66-5.43,5.72-7.18,9.07c-1.83,3.53-2.97,7.38-3.48,11.45c-1.3,10.44,1.01,21.88,6.09,31.78 c4.84,9.44,12.19,17.46,21.33,21.84c5.69,2.73,12.08,4.5,19.25,5.15c7.23,0.65,15.26,0.16,24.18-1.65 c6.63-1.35,12.49-3.45,17.61-6.17c5.35-2.84,9.87-6.36,13.61-10.39c5.44-5.87,9.18-12.99,10.86-21.09 c1.62-7.8,1.32-16.53-1.19-25.95l0,0c-0.65-2.16-1.4-4.15-2.26-5.97c-0.86-1.82-1.82-3.46-2.87-4.92c-1.4-1.95-3.32-3.59-5.63-4.96 c-2.4-1.43-5.2-2.56-8.26-3.47c-3.09-0.91-6.45-1.59-9.95-2.09c-3.54-0.51-7.2-0.84-10.85-1.05c-7.54-0.43-15.02-0.36-21.35-0.3 c-2.08,0.02-4.04,0.04-5.85,0.04c-8.48,0-15.62,0.7-21.35,2.14C27.95,6.53,27.89,6.55,27.83,6.57L27.83,6.57z M15.15,44.43 c-0.23-1.17,0.53-2.29,1.7-2.52c1.17-0.23,2.29,0.53,2.52,1.7c1.31,6.66,3.31,12.1,5.88,16.53c2.53,4.37,5.63,7.78,9.15,10.45 c0.95,0.71,1.14,2.06,0.42,3.01c-0.71,0.95-2.06,1.14-3.01,0.42c-3.96-3-7.44-6.83-10.28-11.73 C18.73,57.45,16.55,51.57,15.15,44.43L15.15,44.43z"/></g></svg>